<svg xmlns="http://www.w3.org/2000/svg" xmlns:xlink="http://www.w3.org/1999/xlink" version="1.1" x="0px" y="0px" viewBox="0 0 780 440" xml:space="preserve"> <g id="Background"> </g> <g id="GRAPHICS"> </g> <g id="PHOTO"> <rect x="-30.2" y="-20.95" fill="#FC8943" width="825.81" height="498.53"></rect> <g> <path fill="#EBF9EB" stroke="#000000" stroke-miterlimit="10" d="M600.34,170.61l0,74.1c0,6-4.87,10.87-10.87,10.87l-106.05,0.8 l-19.7,20.95c-1.67,1.78-4.66,0.6-4.66-1.85v-19.1l-15.79,0c-6.03,0-10.89-4.86-10.89-10.87v-74.1c0-6.01,4.87-10.89,10.89-10.89 l146.18-0.8C595.46,159.72,600.34,164.58,600.34,170.61z"></path> <g> <line fill="#EBF9EB" stroke="#000000" stroke-miterlimit="10" x1="448.05" y1="183.31" x2="579.68" y2="183.31"></line> <line fill="#EBF9EB" stroke="#000000" stroke-miterlimit="10" x1="448.05" y1="196" x2="579.68" y2="196"></line> <g> <line fill="#EBF9EB" stroke="#000000" stroke-miterlimit="10" x1="549.02" y1="208.69" x2="579.68" y2="208.69"></line> <line fill="#EBF9EB" stroke="#000000" stroke-miterlimit="10" x1="448.05" y1="208.69" x2="536.3" y2="208.69"></line> </g> <g> <line fill="#EBF9EB" stroke="#000000" stroke-miterlimit="10" x1="484.68" y1="221.38" x2="579.68" y2="221.38"></line> <line fill="#EBF9EB" stroke="#000000" stroke-miterlimit="10" x1="448.05" y1="221.38" x2="473.71" y2="221.38"></line> </g> <line fill="#EBF9EB" stroke="#000000" stroke-miterlimit="10" x1="448.05" y1="234.07" x2="579.68" y2="234.07"></line> </g> </g> <g> <path fill="#FFC6A4" stroke="#000000" stroke-miterlimit="10" d="M629.39,283.34h-92.67c-3.06,0-5.53-2.48-5.53-5.53v-38.61 c0-3.06,2.48-5.53,5.53-5.53h92.67c3.06,0,5.53,2.48,5.53,5.53v38.61C634.92,280.86,632.44,283.34,629.39,283.34z"></path> <g> <path fill="#FFF8E2" stroke="#000000" stroke-miterlimit="10" d="M560.82,246.05l2.83,5.74c0.12,0.25,0.36,0.42,0.63,0.45 l6.34,0.92c0.68,0.1,0.95,0.94,0.46,1.42l-4.59,4.47c-0.2,0.19-0.29,0.47-0.24,0.74l1.08,6.31c0.12,0.68-0.6,1.2-1.21,0.88 l-5.67-2.98c-0.24-0.13-0.53-0.13-0.77,0l-5.67,2.98c-0.61,0.32-1.32-0.2-1.21-0.88l1.08-6.31c0.05-0.27-0.04-0.55-0.24-0.74 l-4.59-4.47c-0.49-0.48-0.22-1.32,0.46-1.42l6.34-0.92c0.27-0.04,0.51-0.21,0.63-0.45l2.83-5.74 C559.63,245.43,560.51,245.43,560.82,246.05z"></path> <g> <path fill="#162020" d="M587.82,261.96h-8.56v-1.86l7.72-11.58h3.08v11.47h2.54v1.97h-2.54v4.56h-2.24V261.96z M581.5,259.99 h6.32v-9.39L581.5,259.99z"></path> <path fill="#162020" d="M598.27,251.49l-2.89,3.05l-1.35-1.38l4.51-4.64h1.97v18h-2.24V251.49z"></path> <path fill="#162020" d="M605.26,262.47c1.05,1.4,2.89,2.38,5.02,2.38c2.62,0,4.21-1.29,4.21-3.37c0-2.24-1.84-3.18-4.48-3.18 c-0.76,0-1.59,0-1.86,0.03v-2.05c0.3,0.03,1.13,0.03,1.86,0.03c2.27,0,4.18-0.89,4.18-2.97c0-2-1.84-3.08-4.02-3.08 c-1.97,0-3.43,0.76-4.75,2.19l-1.24-1.4c1.3-1.57,3.37-2.78,6.15-2.78c3.46,0,6.1,1.75,6.1,4.8c0,2.59-2.19,3.89-3.89,4.18 c1.65,0.13,4.16,1.54,4.16,4.43c0,3-2.4,5.18-6.37,5.18c-3.05,0-5.29-1.35-6.4-2.97L605.26,262.47z"></path> </g> </g> </g> <path fill="#FFC6A4" stroke="#000000" stroke-miterlimit="10" d="M401.88,157.3H291.36c-10.74,0-19.44-8.71-19.44-19.44V90.25 c0-10.74,8.71-19.44,19.44-19.44h110.52c10.74,0,19.44,8.71,19.44,19.44v47.61C421.32,148.6,412.62,157.3,401.88,157.3z"></path> <path fill="#FFE99A" stroke="#000000" stroke-miterlimit="10" d="M398.53,106.43H294.71c-4.78,0-8.66-3.88-8.66-8.66v-1.4 c0-4.78,3.88-8.66,8.66-8.66h103.82c4.78,0,8.66,3.88,8.66,8.66v1.4C407.18,102.55,403.31,106.43,398.53,106.43z"></path> <circle fill="#FFBC00" stroke="#000000" stroke-miterlimit="10" cx="328.99" cy="97.08" r="13.24"></circle> <path fill="#6F5ED3" stroke="#000000" stroke-miterlimit="10" d="M321.49,124.64h-32.44c-1.65,0-2.99-1.34-2.99-2.99v-0.48 c0-1.65,1.34-2.99,2.99-2.99h32.44c1.65,0,2.99,1.34,2.99,2.99v0.48C324.48,123.3,323.14,124.64,321.49,124.64z"></path> <path fill="#6F5ED3" stroke="#000000" stroke-miterlimit="10" d="M312.76,135.78h-23.71c-1.65,0-2.99-1.34-2.99-2.99v-0.48 c0-1.65,1.34-2.99,2.99-2.99h23.71c1.65,0,2.99,1.34,2.99,2.99v0.48C315.75,134.44,314.41,135.78,312.76,135.78z"></path> <path fill="#A193F2" stroke="#000000" stroke-miterlimit="10" d="M399.04,135.78h-36.55c-4.5,0-8.15-3.65-8.15-8.15v-1.31 c0-4.5,3.65-8.15,8.15-8.15h36.55c4.5,0,8.15,3.65,8.15,8.15v1.31C407.18,132.13,403.54,135.78,399.04,135.78z"></path> <path fill="#FFBC00" stroke="#000000" stroke-miterlimit="10" d="M394.77,129.31h-27.48c-1.19,0-2.16-0.97-2.16-2.16v-0.35 c0-1.19,0.97-2.16,2.16-2.16h27.48c1.19,0,2.16,0.97,2.16,2.16v0.35C396.94,128.34,395.97,129.31,394.77,129.31z"></path> <path fill="#A193F2" stroke="#000000" stroke-miterlimit="10" d="M515.33,128.79h-58.63c-5.96,0-10.79-4.83-10.79-10.79V62.83 c0-5.96,4.83-10.79,10.79-10.79h58.63c5.96,0,10.79,4.83,10.79,10.79V118C526.11,123.96,521.28,128.79,515.33,128.79z"></path> <path fill="#FFE99A" stroke="#000000" stroke-miterlimit="10" d="M489.76,95.63h-0.15c-0.05-0.02-0.09-0.08-0.09-0.14V70.76 c0.08,0,0.16,0,0.24,0.01V95.63z"></path> <path fill="#FFE99A" stroke="#000000" stroke-miterlimit="10" d="M512.85,95.02c0,13.4-10.87,24.27-24.28,24.27 c-13.2,0-23.94-10.54-24.26-23.66h25.3c0.06,0.04,17.02-16.83,17.02-16.83c1.8,1.99,3.25,4.28,4.31,6.77 C512.17,88.48,512.85,91.67,512.85,95.02z"></path> <path fill="#FFBC00" stroke="#000000" stroke-miterlimit="10" d="M489.1,95.63h-24.79c0,0,0,0,0,0 c-0.33-13.69,10.66-24.89,24.26-24.89c0.32,0,1.62,0.13,1.93,0.14c0,0-0.28,20.32-0.23,23.84C490.27,95,489.38,95.63,489.1,95.63z"></path> <path fill="#EBF9EB" stroke="#000000" stroke-miterlimit="10" d="M506.63,78.8l-16.98,16.77c-0.14,0.14,0.11-0.29,0.11-0.49V71.01 c0-0.13,0.11-0.24,0.24-0.23c6.13,0.36,11.65,2.99,15.74,7.07C506.05,78.16,506.35,78.48,506.63,78.8z"></path> <path fill="#FFE99A" stroke="#000000" stroke-miterlimit="10" d="M470.52,66.77h-16.09c-1.33,0-2.41-1.08-2.41-2.41v-0.39 c0-1.33,1.08-2.41,2.41-2.41h16.09c1.33,0,2.41,1.08,2.41,2.41v0.39C472.93,65.69,471.85,66.77,470.52,66.77z"></path> <circle fill="#FFBC00" stroke="#000000" stroke-miterlimit="10" cx="462.48" cy="64.17" r="3.96"></circle> <circle fill="#A1D2F8" stroke="#000000" stroke-miterlimit="10" cx="271.58" cy="276.38" r="21.18"></circle> <path fill="#EBF9EB" stroke="#000000" stroke-miterlimit="10" d="M271.58,261.62c-5.64,0-10.21,4.57-10.21,10.21 c0,5.64,10.21,19.31,10.21,19.31s10.21-13.67,10.21-19.31C281.79,266.19,277.22,261.62,271.58,261.62z M271.58,276.39 c-2.52,0-4.56-2.04-4.56-4.56c0-2.52,2.04-4.56,4.56-4.56s4.56,2.04,4.56,4.56C276.14,274.35,274.1,276.39,271.58,276.39z"></path> <circle fill="#3896E3" stroke="#000000" stroke-miterlimit="10" cx="288.33" cy="207.26" r="30.78"></circle> <polygon fill="#EBF9EB" stroke="#000000" stroke-miterlimit="10" points="301.32,207.26 278.13,193.88 278.13,220.65 "></polygon> <circle fill="#C7E4F9" stroke="#000000" stroke-miterlimit="10" cx="219.74" cy="150.54" r="33.25"></circle> <path fill="#EBF9EB" stroke="#000000" stroke-miterlimit="10" d="M219.74,138.98c-4.26-4.26-11.17-4.26-15.43,0 c-4.26,4.26-4.26,11.17,0,15.43l15.43,15.43l15.43-15.43c4.26-4.26,4.26-11.17,0-15.43S224.01,134.72,219.74,138.98z"></path> <circle fill="#6F5ED3" stroke="#000000" stroke-miterlimit="10" cx="129.17" cy="176.49" r="42.69"></circle> <g> <path fill="#EBF9EB" stroke="#000000" stroke-miterlimit="10" d="M127.94,202.91c-0.1,0-0.2,0-0.3-0.01 c-3.27-0.15-5.96-2.82-6.13-6.09c-0.05-1,0.13-1.98,0.52-2.88h-13.41c-0.68,0-1.23-0.55-1.23-1.23v-6.1 c0-0.68,0.55-1.23,1.23-1.23c0.98,0,1.78-0.8,1.78-1.78v-16.3c0-7.37,4.66-14,11.6-16.5c0.24-0.09,0.42-0.28,0.52-0.55 c0.78-2.32,2.96-3.88,5.41-3.88c2.66,0,4.9,1.8,5.53,4.3c7.1,2.36,11.99,9.09,11.99,16.63v16.3c0,0.98,0.8,1.78,1.78,1.78 c0.68,0,1.23,0.55,1.23,1.23v6.1c0,0.68-0.55,1.23-1.23,1.23h-13.4c0.34,0.79,0.52,1.65,0.52,2.54c0,1.77-0.71,3.43-1.99,4.65 C131.17,202.28,129.6,202.91,127.94,202.91z"></path> </g> <circle fill="#A193F2" stroke="#000000" stroke-miterlimit="10" cx="198.53" cy="241.05" r="33.25"></circle> <g> <path fill="#EBF9EB" stroke="#000000" stroke-miterlimit="10" d="M218.15,230.1v21.37c0,2.02-1.3,3.67-2.91,3.67h-33.55 c-1.61,0-2.91-1.65-2.91-3.67V230.1l16.83,13.57c0.85,0.69,1.84,1.05,2.85,1.05c1.01,0,1.99-0.36,2.85-1.05L218.15,230.1z"></path> <path fill="#EBF9EB" stroke="#000000" stroke-miterlimit="10" d="M178.96,231.23l19.09,15.89c0.29,0.24,0.67,0.24,0.96,0 l19.09-15.89c0.75-0.62,0.41-2.12-0.48-2.12h-38.18C178.55,229.11,178.21,230.61,178.96,231.23z"></path> </g> <g> <g> <path fill="#FFE99A" stroke="#000000" stroke-miterlimit="10" d="M417.66,390.96l13.42,12.9l42.23-45.07l-13.46-12.66 C459.85,346.13,435.3,379.94,417.66,390.96z"></path> <path fill="#FFE99A" stroke="#000000" stroke-miterlimit="10" d="M480.07,360.47l-6.12,4.91c-1.55,1.25-3.4,2.07-5.36,2.4 c-1.96,0.33-3.98,0.15-5.85-0.53l-15.18-5.45l7.75-9.67L480.07,360.47z"></path> <path fill="#FFE99A" stroke="#000000" stroke-miterlimit="10" d="M508.58,317.54c2.3,0.83,3.37,4.37,3.22,9.39 c4.29,4.65,5.7,12.36,3.03,19.8c-2.73,7.6-8.93,12.71-15.36,13.4c-2.83,3.37-5.61,5.05-7.73,4.29 c-4.45-1.6-33.12-10.98-45.36-15.37l16.87-46.99C477.43,307.14,504.13,315.94,508.58,317.54L508.58,317.54z"></path> <path fill="#FFBC00" stroke="#000000" stroke-miterlimit="10" d="M463.26,302.05c4.45,1.6,4.33,13.35-0.32,26.29 s-12.1,22.3-16.55,20.7c0,0-62.34-18.75-114.05-0.25l42.75-119.09C403.24,276.87,463.26,302.05,463.26,302.05L463.26,302.05z"></path> <path fill="#FFE99A" stroke="#000000" stroke-miterlimit="10" d="M327.69,348.58c-11.56-4.15-11.15-34.75,0.91-68.35 c12.06-33.6,31.21-57.47,42.77-53.32c11.56,4.15,11.15,34.75-0.91,68.35C358.4,328.86,339.25,352.73,327.69,348.58z"></path> <path fill="#FFBC00" stroke="#000000" stroke-miterlimit="10" d="M352.24,273.09l-9.71,27.04l21.68,10.38 c2.22-4.78,4.32-9.89,6.25-15.25c2.06-5.75,3.78-11.41,5.17-16.86L352.24,273.09z"></path> <path fill="#FFE99A" stroke="#000000" stroke-miterlimit="10" d="M342.33,299.69c-2.13-0.77-1.74-7.3,0.87-14.58 c2.62-7.29,6.47-12.58,8.6-11.81c2.13,0.77,1.74,7.3-0.87,14.58C348.32,295.17,344.47,300.46,342.33,299.69z"></path> <path fill="#1A1A1A" stroke="#000000" stroke-miterlimit="10" d="M345.2,292.73c-0.97-0.35-0.77-3.37,0.45-6.74 c1.21-3.38,2.98-5.83,3.94-5.49c0.97,0.35,0.77,3.37-0.45,6.74C347.93,290.62,346.16,293.08,345.2,292.73z"></path> <path fill="#FFE99A" stroke="#000000" stroke-miterlimit="10" d="M370.46,295.26c-9.45,26.34-23.26,46.7-34.37,52.27 c6.14-1.96,12.41-3.47,18.77-4.53c9.46-9.19,19.05-24.97,25.9-44.04c6.85-19.07,9.48-37.35,8.02-50.46 c-4.23-4.86-8.11-10.02-11.6-15.43C382.21,244.43,379.92,268.92,370.46,295.26L370.46,295.26z"></path> </g> </g> <path fill="#EBF9EB" stroke="#000000" stroke-miterlimit="10" d="M148.65,194.13h-40.43c-0.8,0-1.44-0.65-1.44-1.44v-6.7 c0-0.8,0.65-1.44,1.44-1.44h40.43c0.8,0,1.44,0.65,1.44,1.44v6.7C150.09,193.48,149.44,194.13,148.65,194.13z"></path> <path fill="#EBF9EB" stroke="#000000" stroke-miterlimit="10" d="M133.27,150.86h-10.63c0.03-2.9,2.4-5.25,5.32-5.25 C130.87,145.61,133.24,147.96,133.27,150.86z"></path> </g> </svg>